HIERARCHY
ROOT Hips
{
	OFFSET 0.000000 0.000000 0.000000
	CHANNELS 6 Xposition Yposition Zposition Xrotation Yrotation Zrotation
	JOINT LeftUpLeg_virtual
	{
		OFFSET 0.000000 0.000000 0.000000
		CHANNELS 3 Xrotation Yrotation Zrotation
		JOINT LeftUpLeg
		{
			OFFSET 13.026900 -6.336304 -1.092800
			CHANNELS 3 Xrotation Yrotation Zrotation
			JOINT LeftLeg
			{
				OFFSET 0.524474 -46.096886 9.782700
				CHANNELS 3 Xrotation Yrotation Zrotation
				JOINT LeftFoot
				{
					OFFSET -0.524474 -53.427422 -12.948200
					CHANNELS 3 Xrotation Yrotation Zrotation
					JOINT LeftToeBase
					{
						OFFSET 0.192200 -14.009700 16.364100
						CHANNELS 3 Xrotation Yrotation Zrotation
						JOINT LeftToe_End
						{
							OFFSET -1.784700 -0.561700 9.474800
							CHANNELS 3 Xrotation Yrotation Zrotation
							End Site
							{
								OFFSET 0 0 0
							}
						}
					}
				}
			}
		}
	}
	JOINT RightUpLeg_virtual
	{
		OFFSET 0.000000 0.000000 0.000000
		CHANNELS 3 Xrotation Yrotation Zrotation
		JOINT RightUpLeg
		{
			OFFSET -12.883000 -6.336304 -1.092800
			CHANNELS 3 Xrotation Yrotation Zrotation
			JOINT RightLeg
			{
				OFFSET -0.524587 -46.096825 9.782800
				CHANNELS 3 Xrotation Yrotation Zrotation
				JOINT RightFoot
				{
					OFFSET 0.524587 -53.427383 -12.948300
					CHANNELS 3 Xrotation Yrotation Zrotation
					JOINT RightToeBase
					{
						OFFSET -0.192200 -14.009700 16.364100
						CHANNELS 3 Xrotation Yrotation Zrotation
						JOINT RightToe_End
						{
							OFFSET 1.784700 -0.561700 9.474800
							CHANNELS 3 Xrotation Yrotation Zrotation
							End Site
							{
								OFFSET 0 0 0
							}
						}
					}
				}
			}
		}
	}
	JOINT Spine_virtual
	{
		OFFSET 0.000000 0.000000 0.000000
		CHANNELS 3 Xrotation Yrotation Zrotation
		JOINT Spine
		{
			OFFSET 0.072000 7.257294 -0.789700
			CHANNELS 3 Xrotation Yrotation Zrotation
			JOINT Spine1
			{
				OFFSET 0.000000 12.508769 -0.658067
				CHANNELS 3 Xrotation Yrotation Zrotation
				JOINT Spine1_split
				{
					OFFSET 0.000000 12.508769 -0.658067
					CHANNELS 3 Xrotation Yrotation Zrotation
					JOINT Spine2
					{
						OFFSET 0.000000 12.508769 -0.658067
						CHANNELS 3 Xrotation Yrotation Zrotation
						JOINT Neck_virtual
						{
							OFFSET 0.000000 0.000000 0.000000
							CHANNELS 3 Xrotation Yrotation Zrotation
							JOINT Neck
							{
								OFFSET 0.000000 14.033295 7.520400
								CHANNELS 3 Xrotation Yrotation Zrotation
								JOINT Head
								{
									OFFSET 0.000000 8.198502 5.703100
									CHANNELS 3 Xrotation Yrotation Zrotation
									JOINT HeadTop_End
									{
										OFFSET 0.000000 17.760803 13.332701
										CHANNELS 3 Xrotation Yrotation Zrotation
										End Site
										{
											OFFSET 0 0 0
										}
									}
								}
							}
						}
						JOINT LeftShoulder_virtual
						{
							OFFSET 0.000000 0.000000 0.000000
							CHANNELS 3 Xrotation Yrotation Zrotation
							JOINT LeftShoulder
							{
								OFFSET 6.292450 5.785301 -0.669000
								CHANNELS 3 Xrotation Yrotation Zrotation
								JOINT LeftShoulder_split
								{
									OFFSET 6.292450 5.785301 -0.669000
									CHANNELS 3 Xrotation Yrotation Zrotation
									JOINT LeftArm
									{
										OFFSET 13.907140 -6.093903 1.965100
										CHANNELS 3 Xrotation Yrotation Zrotation
										JOINT LeftForeArm
										{
											OFFSET 34.140198 0.000000 0.000000
											CHANNELS 3 Xrotation Yrotation Zrotation
											JOINT LeftHand
											{
												OFFSET 40.960209 0.000000 0.000000
												CHANNELS 3 Xrotation Yrotation Zrotation
												End Site
												{
													OFFSET 0 0 0
												}
											}
										}
									}
								}
							}
						}
						JOINT RightShoulder_virtual
						{
							OFFSET 0.000000 0.000000 0.000000
							CHANNELS 3 Xrotation Yrotation Zrotation
							JOINT RightShoulder
							{
								OFFSET -6.292450 5.785301 -0.669000
								CHANNELS 3 Xrotation Yrotation Zrotation
								JOINT RightShoulder_split
								{
									OFFSET -6.292450 5.785301 -0.669000
									CHANNELS 3 Xrotation Yrotation Zrotation
									JOINT RightArm
									{
										OFFSET -13.907140 -6.093903 1.965100
										CHANNELS 3 Xrotation Yrotation Zrotation
										JOINT RightForeArm
										{
											OFFSET -34.140198 0.000000 0.000000
											CHANNELS 3 Xrotation Yrotation Zrotation
											JOINT RightHand
											{
												OFFSET -40.960209 0.000000 0.000000
												CHANNELS 3 Xrotation Yrotation Zrotation
												End Site
												{
													OFFSET 0 0 0
												}
											}
										}
									}
								}
							}
						}
					}
				}
			}
		}
	}
}
MOTION
Frames: 4
Frame Time: 0.03333333
124.655289 112.785309 225.736725 0.000000 0.000000 0.000000 -114.015460 -62.749091 177.893616 -52.223534 -8.685381 26.723668 83.667003 -4.457339 -5.152495 9.531624 -8.789865 0.152338 -1.819815 -0.012784 -3.705154 0.000000 0.000000 0.000000 -89.680739 -71.234727 -163.921439 -62.413791 -5.730356 -42.164339 47.290895 10.588261 -5.028778 10.222106 -2.481328 13.990222 5.036178 -0.064669 -1.526780 0.000000 0.000000 0.000000 -111.876436 -62.680817 -177.710826 14.848830 4.799461 3.428802 -2.296190 1.408363 6.913409 0.276663 1.311351 1.337668 0.000000 0.000000 0.000000 0.798013 1.435727 5.740219 20.051245 4.719192 11.218324 15.316458 37.537176 -20.073501 0.000000 0.000000 0.000000 0.057272 1.377504 6.467686 1.801652 -10.875014 11.272683 3.646820 2.004582 0.992401 1.319954 12.341165 -1.358796 3.609976 -35.294159 -0.678390 0.000000 0.000000 0.000000 -1.447345 1.903608 6.147519 1.993819 4.931323 17.395566 -0.004666 -1.134113 -0.205366 -22.132948 22.149767 16.411437 2.136820 20.009352 -2.488352 0.000000 0.000000 0.000000 
132.613068 105.388809 238.686920 0.000000 0.000000 0.000000 -113.998343 -59.028421 177.553240 -51.596362 -8.744296 23.187734 83.202824 -2.029432 -4.114875 13.229715 -5.833343 0.271178 -0.519926 -0.100203 -3.194619 0.000000 0.000000 0.000000 -94.553109 -66.848557 -169.685094 -62.302465 -5.473980 -38.289491 42.141751 9.173373 -4.865303 15.900735 -3.367176 13.181440 4.039388 -0.396862 -0.519478 0.000000 0.000000 0.000000 -113.067279 -58.881490 179.911035 15.616061 4.738965 2.843537 -1.540546 2.292673 6.181511 0.188258 1.402179 1.877683 0.000000 0.000000 0.000000 0.808265 2.339009 4.812556 19.985081 4.675997 9.182242 15.006124 34.706425 -19.190221 0.000000 0.000000 0.000000 0.359788 2.215706 5.436430 2.063775 -10.175581 10.307500 2.043162 2.790738 0.741982 -1.226733 17.247133 -0.271678 4.006271 -36.237555 -0.461279 0.000000 0.000000 0.000000 -1.261434 2.885822 5.268276 1.629832 7.183409 19.108841 -0.336893 -2.900891 -0.130960 -23.723422 22.228383 18.902402 2.532822 26.395234 -2.287575 0.000000 0.000000 0.000000 
140.503250 94.907242 253.222473 0.000000 0.000000 0.000000 -114.368137 -52.334532 177.511139 -50.034342 -6.631595 21.386603 80.350981 0.541404 -3.059434 14.091623 -1.531553 -1.281085 0.489792 -0.123642 -2.400213 0.000000 0.000000 0.000000 -101.294308 -59.720135 -177.192579 -65.142151 -0.818722 -32.025384 38.165550 7.881810 -5.267141 21.600511 -2.396162 14.537255 3.397864 -0.825719 0.218928 0.000000 0.000000 0.000000 -113.200646 -52.849859 179.363308 16.596407 4.246235 2.470377 -0.658098 3.141560 5.834237 0.589258 1.369529 2.126116 0.000000 0.000000 0.000000 0.815119 3.276322 4.392355 19.029050 4.355377 7.416730 14.130416 31.546523 -17.984054 0.000000 0.000000 0.000000 0.662847 3.074185 4.992071 2.190872 -8.156754 8.550955 1.495111 3.714709 -0.299014 -4.494451 22.800411 0.224217 3.705858 -43.279118 -0.591187 0.000000 0.000000 0.000000 -1.124109 3.814200 4.961224 1.352102 8.608466 20.287274 -0.543445 -3.537960 0.326999 -26.113429 20.857134 22.239898 2.378858 35.495096 -1.586258 0.000000 0.000000 0.000000 
148.144577 81.422104 268.505524 0.000000 0.000000 0.000000 -115.455756 -42.827031 177.203165 -48.043254 -1.839156 21.731925 75.174667 1.905708 -1.873978 11.745259 2.518593 -4.105874 0.631044 -0.175511 -1.189315 0.000000 0.000000 0.000000 -106.687698 -50.084449 176.496979 -72.505258 6.336956 -23.332222 36.510957 7.321915 -6.135095 25.911786 0.594160 17.652421 3.212607 -1.198440 0.281371 0.000000 0.000000 0.000000 -112.988657 -45.018361 179.377665 17.645661 3.093657 2.247626 0.295196 3.704909 5.990312 0.872689 -0.195179 2.093868 0.000000 0.000000 0.000000 0.901219 4.030312 4.580099 17.830537 3.747299 6.181508 12.758514 27.955954 -16.545157 0.000000 0.000000 0.000000 0.964175 3.807273 5.247531 2.380417 -5.823424 5.947707 2.307283 4.131367 -1.649036 -6.855866 27.328854 -0.509655 3.112578 -54.721727 -0.994441 0.000000 0.000000 0.000000 -0.980080 4.526676 5.363205 1.295208 8.733451 20.894694 -0.753216 -2.917602 0.628675 -28.332866 18.436473 26.227023 1.276401 45.970711 -0.154616 0.000000 0.000000 0.000000 
